<svg id="Layer_1" data-name="Layer 1" xmlns="http://www.w3.org/2000/svg" width="609.09" height="738.72" viewBox="0 0 609.09 738.72"><defs><style>.cls-1{fill:#1a201e;}.cls-2{fill:#cedfd7;}.cls-3{fill:#233634;}.cls-4{fill:#dcf5e0;}.cls-5{fill:#92e9a4;}.cls-6{font-size:70px;}.cls-6,.cls-8{font-family:MyriadPro-Regular, Myriad Pro;}.cls-7{fill:none;stroke:#5cf;stroke-miterlimit:10;stroke-width:2px;}.cls-8{font-size:32.62px;fill:#5cf;}</style></defs><title>chrono</title><path class="cls-1" d="M400,39.42a349.59,349.59,0,0,1,65.57,8.67c5.14,1.18,46.39,10.48,83.06,30.6,98.87,54.23,134.93,152,139.89,166.12,23.63,67.09,16.16,123.51,8.75,174.86C676.49,563.54,591.75,736.76,470,769.4A305.56,305.56,0,0,1,400,778.14" transform="translate(-95.46 -39.42)"/><path class="cls-2" d="M688.52,201.09s-3.31-55.35-30.6-83.06c-21.66-22-65.57-35-65.57-35C596.72,96.17,675.41,196.72,688.52,201.09Z" transform="translate(-95.46 -39.42)"/><path class="cls-3" d="M684.15,236.07a869.65,869.65,0,0,1-78.69-78.69c-27-30.91-61.2-78.69-61.2-78.69s35-8.74,43.72-4.37c0,0,21.79,33.41,48.09,65.57a724.16,724.16,0,0,0,56.83,61.2C694.26,213.6,688.83,228.91,684.15,236.07Z" transform="translate(-95.46 -39.42)"/><path class="cls-1" d="M400,39.42a349.59,349.59,0,0,0-65.57,8.67c-5.14,1.18-46.39,10.48-83.06,30.6-98.87,54.23-134.93,152-139.89,166.12-23.63,67.09-16.16,123.51-8.75,174.86C123.51,563.54,208.25,736.76,330.05,769.4A305.56,305.56,0,0,0,400,778.14" transform="translate(-95.46 -39.42)"/><path class="cls-2" d="M111.48,201.09s3.31-55.35,30.6-83.06c21.66-22,65.57-35,65.57-35C203.28,96.17,124.59,196.72,111.48,201.09Z" transform="translate(-95.46 -39.42)"/><path class="cls-3" d="M115.85,236.07a869.65,869.65,0,0,0,78.69-78.69c27-30.91,61.2-78.69,61.2-78.69S220.77,70,212,74.32c0,0-21.79,33.41-48.09,65.57a724.16,724.16,0,0,1-56.83,61.2C105.74,213.6,111.17,228.91,115.85,236.07Z" transform="translate(-95.46 -39.42)"/><path class="cls-4" d="M286.34,157.38A229.61,229.61,0,0,0,212,223c-11.4,15.69-46.47,68.24-43.71,139.89,2.92,76,48.28,170.13,109.29,179.24,0,0,64.62-44.94,131.14-43.72,58.86,1.08,113.66,35,113.66,35C579.89,523.24,619,435,623,367.21c4.66-80.64-40-140.66-52.46-157.37-11-14.75-26-34.93-52.46-52.46Z" transform="translate(-95.46 -39.42)"/><rect class="cls-5" x="123.12" y="220.69" width="358.47" height="183.61" rx="12"/><text id="display" class="cls-6" transform="translate(139.17 336.98)">00:00:00.00</text><ellipse class="cls-7" cx="304.54" cy="538.49" rx="57.26" ry="32.09"/><text class="cls-8" transform="translate(276.89 550.06)">IMH</text></svg>