
<svg xmlns="http://www.w3.org/2000/svg" version="1.1" xmlns:xlink="http://www.w3.org/1999/xlink" preserveAspectRatio="none" x="0px" y="0px" width="800px" height="800px" viewBox="0 0 800 800">
<defs>
<g id="Layer3_0_FILL">
<path fill="#CEDFD7" stroke="none" d="
M 207.65 83.05
Q 196.65 86.3 182.95 92.3 155.6 104.25 142.05 118 125 135.3 116.5 169.9 112.3 187.2 111.45 201.05 120.7 198 162.8 145.35 179.8 124.15 192.6 106.4 206.05 87.85 207.65 83.05 Z"/>
</g>

<g id="Layer3_1_FILL">
<path fill="#CEDFD7" stroke="none" d="
M 207.65 83.05
Q 196.65 86.3 182.95 92.3 155.6 104.25 142.05 118 125 135.3 116.5 169.9 112.3 187.2 111.45 201.05 120.7 198 162.8 145.35 179.8 124.15 192.6 106.4 206.05 87.85 207.65 83.05 Z"/>
</g>

<g id="Main_0_Layer0_0_FILL">
<path fill="#1A201E" stroke="none" d="
M 400 39
Q 383.75 39 368.55 41.25 356.1 43.05 334.4 48.05 319.35 51.55 304.7 56.25 274.5 65.95 251.35 78.65 188.7 113.05 146.2 176.8 123.25 211.15 111.45 244.8 95.7 289.5 95.45 338.15 95.25 368.1 102.7 419.65 110.7 474.85 129.85 530.4 149.85 588.2 178.5 636.2 209.25 687.7 246.05 721.2 286.15 757.6 330.05 769.35 340.7 772.25 356.85 774.65 379.7 778.1 399.95 778.1
L 400 39 Z"/>
</g>

<g id="Main_0_Layer0_1_FILL">
<path fill="#233634" stroke="none" d="
M 237.15 74.85
Q 217.45 71.55 212 74.3 206.55 82.65 197.8 95 180.35 119.75 163.9 139.85 146.75 160.85 125.2 183.05 114.45 194.15 107.1 201.05 106.15 209.75 109.2 220.6 111.8 229.9 115.8 236.05 132.8 221.3 151.4 203 174.8 179.95 194.5 157.35 211.4 138.05 235.25 106.4 247.15 90.6 255.7 78.65 246.95 76.45 237.15 74.85 Z"/>
</g>

<g id="Main_0_Layer0_2_FILL">
<path fill="#1A201E" stroke="none" d="
M 400 39
Q 383.75 39 368.55 41.25 356.1 43.05 334.4 48.05 319.35 51.55 304.7 56.25 274.5 65.95 251.35 78.65 188.7 113.05 146.2 176.8 123.25 211.15 111.45 244.8 95.7 289.5 95.45 338.15 95.25 368.1 102.7 419.65 110.7 474.85 129.85 530.4 149.85 588.2 178.5 636.2 209.25 687.7 246.05 721.2 286.15 757.6 330.05 769.35 340.7 772.25 356.85 774.65 379.7 778.1 399.95 778.1
L 400 39 Z"/>
</g>

<g id="Main_0_Layer0_3_FILL">
<path fill="#233634" stroke="none" d="
M 237.15 74.85
Q 217.45 71.55 212 74.3 206.55 82.65 197.8 95 180.35 119.75 163.9 139.85 146.75 160.85 125.2 183.05 114.45 194.15 107.1 201.05 106.15 209.75 109.2 220.6 111.8 229.9 115.8 236.05 132.8 221.3 151.4 203 174.8 179.95 194.5 157.35 211.4 138.05 235.25 106.4 247.15 90.6 255.7 78.65 246.95 76.45 237.15 74.85 Z"/>
</g>

<g id="Sockle_0_Layer0_0_FILL">
<path fill="#DCF5E0" stroke="none" d="
M 550.05 184.25
Q 535.4 168.55 518 157
L 286.3 157
Q 267.85 167.25 251.5 180.65 229 199.15 212 222.55 195.65 245.05 184.85 271.5 166.5 316.3 168.3 362.45 169.4 391.05 178 421.25 186.7 451.6 201.15 477.15 216.35 504 235.15 520.5 255.55 538.35 277.55 541.65 281.6 538.85 288.7 534.65 302.9 526.25 318.2 519.35 367.15 497.2 408.7 497.95 445.5 498.65 487.65 515.85 508.7 524.5 522.4 532.95 543.05 529.3 561.8 512.25 578.95 496.65 592.75 471.55 605.65 448 613.65 419.95 621.45 392.65 622.95 366.8 627.6 286.1 570.45 209.45 558.55 193.4 550.05 184.25 Z"/>
</g>

<g id="Display_0_Layer0_0_FILL">
<path fill="#92E9A4" stroke="none" d="
M 358 12
Q 358 7 354.5 3.5 350.95 0 346 0
L 12 0
Q 7 0 3.5 3.5 0 7 0 12
L 0 172
Q 0 176.95 3.5 180.5 7 184 12 184
L 346 184
Q 350.95 184 354.5 180.5 358 176.95 358 172
L 358 12 Z"/>
</g>

<path id="IMH_0_Layer0_0_1_STROKES" stroke="#55CCFF" stroke-width="2" stroke-linejoin="miter" stroke-linecap="butt" stroke-miterlimit="10" fill="none" d="
M 458 578
Q 458 591.25 441.15 600.6 424.3 610 400.5 610 376.65 610 359.85 600.6 343 591.25 343 578 343 564.75 359.85 555.35 376.65 546 400.5 546 424.3 546 441.15 555.35 458 564.75 458 578 Z"/>
</defs>

<g transform="matrix( -1, 0, 0, 1, 800,0) ">
<use xlink:href="#Layer3_0_FILL"/>
</g>

<g transform="matrix( 1, 0, 0, 1, 0,0) ">
<use xlink:href="#Layer3_1_FILL"/>
</g>

<g transform="matrix( 1, 0, 0, 1, 95.45,39) ">
<g transform="matrix( -1, 0, 0, 1, 704.55,-39) ">
<use xlink:href="#Main_0_Layer0_0_FILL"/>
</g>

<g transform="matrix( -1, 0, 0, 1, 704.55,-39) ">
<use xlink:href="#Main_0_Layer0_1_FILL"/>
</g>

<g transform="matrix( 1, 0, 0, 1, -95.45,-39) ">
<use xlink:href="#Main_0_Layer0_2_FILL"/>
</g>

<g transform="matrix( 1, 0, 0, 1, -95.45,-39) ">
<use xlink:href="#Main_0_Layer0_3_FILL"/>
</g>
</g>

<g transform="matrix( 1, 0, 0, 1, 168.15,157) ">
<g transform="matrix( 1, 0, 0, 1, -168.15,-157) ">
<use xlink:href="#Sockle_0_Layer0_0_FILL"/>
</g>

<g transform="matrix( 1, 0, 0, 1, 50.85,103) ">
<g transform="matrix( 1, 0, 0, 1, 0,0) ">
<use xlink:href="#Display_0_Layer0_0_FILL"/>
</g>

<g id="display" transform="matrix( 1, 0, 0, 1, 106.85,68.05) ">
<clipPath id="Mask_Mask_1">
<rect x="-95.1" y="-2" width="334.2" height="60.65" fill="#FFFFFF" stroke="none"/>
</clipPath>

<text clip-path="url(#Mask_Mask_1)" writing-mode="lr"><tspan x="-93" y="41.65" baseline-shift="0%" font-family="Courier New" font-weight="bold" font-size="50" fill="#000000" xml:space="preserve">00:00:00.00</tspan></text>
</g>
</g>
</g>

<g transform="matrix( 1, 0, 0, 1, 343,546) ">
<g transform="matrix( 1, 0, 0, 1, -343,-546) ">
<use xlink:href="#IMH_0_Layer0_0_1_STROKES"/>
</g>

<g transform="matrix( 1, 0, 0, 1, -16.8,13.95) ">
<clipPath id="Mask_Mask_2">
<rect x="40.05" y="-2" width="63.9" height="40.4" fill="#FFFFFF" stroke="none"/>
</clipPath>

<text clip-path="url(#Mask_Mask_2)" writing-mode="lr"><tspan x="42.1" y="29.5" baseline-shift="0%" font-family="MyriadPro-Regular" font-size="32.6" fill="#55CCFF" xml:space="preserve">IMH</tspan></text>
</g>
</g>
</svg>
