<svg id="Layer_1" data-name="Layer 1" xmlns="http://www.w3.org/2000/svg" xmlns:xlink="http://www.w3.org/1999/xlink" viewBox="0 0 608.81 762.12"><defs><style>.cls-1{fill:#cedfd7;}.cls-2{fill:#233634;}.cls-3{fill:#92e9a4;}.cls-4{font-size:50px;font-family:CourierNewPS-BoldMT, Courier New;}.cls-4,.cls-7{font-weight:700;}.cls-5{fill:#1a201e;}.cls-6{fill:none;stroke:#5cf;stroke-miterlimit:10;stroke-width:2px;}.cls-7{font-size:32.62px;fill:#5cf;font-family:Arial-BoldMT, Arial;}.cls-8{fill:#dcf5e0;}</style><symbol id="Button" data-name="Button" viewBox="0 0 148.17 162.45"><path class="cls-1" d="M2.58,128S6.07,69.84,34.74,40.73C57.5,17.63,103.63,4,103.63,4,99,17.77,16.36,123.41,2.58,128Z"/><path class="cls-2" d="M8.32,162a1,1,0,0,0,1.52.24A867.91,867.91,0,0,0,87.65,84.28c24.45-28,54.87-69.91,60.34-77.49a1,1,0,0,0-.58-1.54c-6.67-1.59-34.6-7.87-42.28-4,0,0-21.79,33.42-48.09,65.58A724.16,724.16,0,0,1,.21,128C-1.09,140,3.81,154.45,8.32,162Z"/></symbol><symbol id="Screen" data-name="Screen" viewBox="0 0 385.97 218.51"><path d="M337,216.94c-95.18,3.54-191.79.47-287-3A49,49,0,0,1,2.89,168C.73,132.7-.53,98.27.22,67.14S27.13,8.33,58.27,5.71C149.36-2,242.21-2.07,330.78,6.37a60.64,60.64,0,0,1,54.88,58.51c1,33.31-.55,72.32-3.25,108.26A47.34,47.34,0,0,1,337,216.94Z"/><rect class="cls-3" x="13.99" y="23.94" width="358" height="184" rx="25.22"/><text id="display" class="cls-4" transform="translate(27.96 138.34)">00:00:00.00</text></symbol></defs><title>stopwatch</title><g id="stopwatch"><path class="cls-5" d="M400,781.06a304.49,304.49,0,0,0,69.81-8.74c121.8-32.65,206.54-205.86,227.32-349.73,7.42-51.35,14.89-107.77-8.74-174.86-5-14.09-41-111.89-139.89-166.12C511.82,61.49,470.57,52.19,465.44,51,438.9,44.9,423,41.92,400,41.92h0c-23,0-38.9,3-65.44,9.09-5.13,1.18-46.38,10.48-83.06,30.6-98.86,54.23-134.93,152-139.89,166.12C88,314.82,95.45,371.24,102.87,422.59c20.78,143.87,105.52,317.08,227.32,349.73A304.49,304.49,0,0,0,400,781.06" transform="translate(-95.59 -18.94)"/><ellipse class="cls-6" cx="304.91" cy="582.06" rx="57.5" ry="32"/><text class="cls-7" transform="translate(274.51 593.46)">IMH</text><use width="148.17" height="162.45" transform="matrix(-1, 0, 0, 1, 597.41, 57.06)" xlink:href="#Button"/><use width="148.17" height="162.45" transform="translate(11.41 57.06)" xlink:href="#Button"/><path class="cls-1" d="M400,37.91c4.22,0,33.73,1.06,39-3.16,0-.41-.48-.84-.75-1.1A19.51,19.51,0,0,0,436.19,32a65.73,65.73,0,0,0-8.84-5.67h0C423,23.88,410.54,18.94,400,18.94s-23,4.94-27.35,7.37h0A65.73,65.73,0,0,0,363.81,32a19.51,19.51,0,0,0-2.06,1.67c-.27.26-.77.69-.75,1.1C366.27,39,395.78,37.91,400,37.91Z" transform="translate(-95.59 -18.94)"/><path class="cls-2" d="M400,37.92c-16.73,0-27.65,0-40.39-4.77a1.24,1.24,0,0,0-1.19.17c-2.59,2-10.74,10.19-10.47,15.13a.58.58,0,0,0,.51.54C360.51,50.72,380,51.73,400,51.93c20-.2,39.49-1.21,51.54-2.94a.58.58,0,0,0,.51-.54c.27-4.94-7.88-13.11-10.47-15.13a1.24,1.24,0,0,0-1.19-.17c-12.74,4.77-23.66,4.77-40.39,4.77Z" transform="translate(-95.59 -18.94)"/><path class="cls-8" d="M290.62,160a229.73,229.73,0,0,0-74.32,65.57c-11.4,15.7-46.47,68.24-43.72,139.89,2.93,76,48.28,170.13,109.29,179.24,0,0,64.63-44.93,131.15-43.72,58.86,1.08,113.66,35,113.66,35,57.49-10.09,96.63-98.3,100.55-166.12,4.66-80.65-40-140.67-52.46-157.38-11-14.75-26-34.92-52.46-52.46Z" transform="translate(-95.59 -18.94)"/></g><use width="385.97" height="218.51" transform="translate(111.41 220.06)" xlink:href="#Screen"/></svg>