<svg id="Layer_1" data-name="Layer 1" xmlns="http://www.w3.org/2000/svg" xmlns:xlink="http://www.w3.org/1999/xlink" viewBox="0 0 608.81 762.12"><defs><style>.cls-1{fill:#cedfd7;}.cls-2{fill:#233634;}.cls-3{fill:#dcf5e0;}.cls-4{fill:#92e9a4;}.cls-5{font-size:50px;font-family:CourierNewPS-BoldMT, Courier New;}.cls-5,.cls-8{font-weight:700;}.cls-6{fill:#1a201e;}.cls-7{fill:none;stroke:#5cf;stroke-miterlimit:10;stroke-width:2px;}.cls-8{font-size:32.62px;fill:#5cf;font-family:Arial-BoldMT, Arial;}</style><symbol id="Button" data-name="Button" viewBox="0 0 148.17 162.45"><path class="cls-1" d="M2.58,128S6.07,69.84,34.74,40.73C57.5,17.63,103.63,4,103.63,4,99,17.77,16.36,123.41,2.58,128Z"/><path class="cls-2" d="M8.32,162a1,1,0,0,0,1.52.24A867.91,867.91,0,0,0,87.65,84.28c24.45-28,54.87-69.91,60.34-77.49a1,1,0,0,0-.58-1.54c-6.67-1.59-34.6-7.87-42.28-4,0,0-21.79,33.42-48.09,65.58A724.16,724.16,0,0,1,.21,128C-1.09,140,3.81,154.45,8.32,162Z"/></symbol><symbol id="Dock" data-name="Dock" viewBox="0 0 455.14 384.7"><path class="cls-3" d="M118.19,0A229.73,229.73,0,0,0,43.87,65.57C32.47,81.27-2.6,133.81.15,205.46c2.93,76,48.28,170.13,109.29,179.24,0,0,64.63-44.93,131.15-43.72,58.86,1.08,113.66,35,113.66,35,57.48-10.09,96.63-98.3,100.55-166.12,4.66-80.65-40-140.67-52.46-157.38-11-14.75-26-34.92-52.46-52.46Z"/><path d="M371.6,296c-95.19,3.54-191.8.47-287-3a49,49,0,0,1-47.11-45.91c-2.17-35.32-3.43-69.75-2.68-100.88S61.72,87.4,92.85,84.77c91.09-7.67,183.94-7.77,272.51.67a60.63,60.63,0,0,1,54.88,58.5c1,33.32-.54,72.32-3.25,108.26A47.33,47.33,0,0,1,371.6,296Z"/><rect class="cls-4" x="48.57" y="103" width="358" height="184" rx="25.22"/><text id="display" class="cls-5" transform="translate(62.54 217.4)">00:00:00.00</text></symbol></defs><title>stopwatch</title><path class="cls-6" d="M400,781.06a304.49,304.49,0,0,0,69.81-8.74c121.8-32.65,206.54-205.86,227.32-349.73,7.42-51.35,14.89-107.77-8.74-174.86-5-14.09-41-111.89-139.89-166.12C511.82,61.49,470.57,52.19,465.44,51,438.9,44.9,423,41.92,400,41.92h0c-23,0-38.9,3-65.44,9.09-5.13,1.18-46.38,10.48-83.06,30.6-98.86,54.23-134.93,152-139.89,166.12C88,314.82,95.45,371.24,102.87,422.59c20.78,143.87,105.52,317.08,227.32,349.73A304.49,304.49,0,0,0,400,781.06" transform="translate(-95.59 -18.94)"/><ellipse class="cls-7" cx="304.91" cy="581.98" rx="57.5" ry="32"/><text class="cls-8" transform="translate(274.51 593.46)">IMH</text><use width="148.17" height="162.45" transform="matrix(-1, 0, 0, 1, 597.38, 57.25)" xlink:href="#Button"/><use width="148.17" height="162.45" transform="translate(11.43 57.07)" xlink:href="#Button"/><path class="cls-1" d="M400,37.91c4.22,0,33.73,1.06,39-3.16,0-.41-.48-.84-.75-1.1A19.51,19.51,0,0,0,436.19,32a65.73,65.73,0,0,0-8.84-5.67h0C423,23.88,410.54,18.94,400,18.94s-23,4.94-27.35,7.37h0A65.73,65.73,0,0,0,363.81,32a19.51,19.51,0,0,0-2.06,1.67c-.27.26-.77.69-.75,1.1C366.27,39,395.78,37.91,400,37.91Z" transform="translate(-95.59 -18.94)"/><path class="cls-2" d="M400,37.92c-16.73,0-27.65,0-40.39-4.77a1.24,1.24,0,0,0-1.19.17c-2.59,2-10.74,10.19-10.47,15.13a.58.58,0,0,0,.51.54C360.51,50.72,380,51.73,400,51.93c20-.2,39.49-1.21,51.54-2.94a.58.58,0,0,0,.51-.54c.27-4.94-7.88-13.11-10.47-15.13a1.24,1.24,0,0,0-1.19-.17c-12.74,4.77-23.66,4.77-40.39,4.77Z" transform="translate(-95.59 -18.94)"/><use width="455.14" height="384.7" transform="translate(76.84 140.98)" xlink:href="#Dock"/></svg>