<svg xmlns="http://www.w3.org/2000/svg" xmlns:xlink="http://www.w3.org/1999/xlink" viewBox="0 0 609 762.35"><defs><style>.cls-1{fill:#cedfd7;}.cls-2{fill:#233634;}.cls-3{fill:#1a201e;}.cls-4{fill:none;stroke:#5cf;stroke-miterlimit:10;stroke-width:2px;}.cls-5{font-size:32.63px;fill:#5cf;font-family:Arial-BoldMT, Arial;}.cls-5,.cls-8,.cls-9{font-weight:700;}.cls-6{fill:#dcf5e0;}.cls-7{fill:#92e9a4;}.cls-8{font-size:72.7px;}.cls-8,.cls-9{font-family:DS-Digital-Bold, DS-Digital;}.cls-9{font-size:151.47px;}</style><symbol id="Button" data-name="Button" viewBox="0 0 148.17 162.45"><path class="cls-1" d="M2.58,128S6.07,69.84,34.74,40.73C57.5,17.63,103.63,4,103.63,4,99,17.77,16.36,123.41,2.58,128Z"/><path class="cls-2" d="M8.32,162a1,1,0,0,0,1.52.24A867.91,867.91,0,0,0,87.65,84.28c24.45-28,54.87-69.91,60.34-77.49a1,1,0,0,0-.58-1.54c-6.67-1.59-34.6-7.87-42.28-4,0,0-21.79,33.42-48.09,65.58A724.16,724.16,0,0,1,.21,128C-1.09,140,3.81,154.45,8.32,162Z"/></symbol></defs><title>stopwatch</title><g id="frame"><path class="cls-3" d="M400,781.18a303.88,303.88,0,0,0,69.83-8.75C591.67,739.78,676.44,566.51,697.22,422.6c7.42-51.37,14.89-107.81-8.74-174.92-5-14.09-41-111.92-139.94-166.17C511.86,61.38,470.6,52.08,465.46,50.9,438.91,44.79,423,41.81,400,41.81h0c-23,0-38.91,3-65.46,9.09-5.14,1.18-46.4,10.48-83.08,30.61-98.9,54.25-135,152.08-139.94,166.17-23.63,67.11-16.16,123.55-8.74,174.92,20.78,143.91,105.55,317.18,227.39,349.83A303.88,303.88,0,0,0,400,781.18" transform="translate(-95.5 -18.82)"/><ellipse class="cls-4" cx="305" cy="582.24" rx="57.52" ry="32.01"/><text class="cls-5" transform="translate(274.59 593.64)">IMH</text><use width="148.17" height="162.45" transform="matrix(-1, 0, 0, 1, 597.59, 57.08)" xlink:href="#Button"/><use width="148.17" height="162.45" transform="translate(11.41 57.08)" xlink:href="#Button"/><path class="cls-1" d="M400,37.8c4.22,0,33.74,1.06,39-3.16,0-.42-.48-.84-.74-1.1a19.63,19.63,0,0,0-2.07-1.67,64.64,64.64,0,0,0-8.84-5.67h0C423,23.76,410.54,18.82,400,18.82s-23,4.94-27.36,7.38h0a64.64,64.64,0,0,0-8.84,5.67,19.63,19.63,0,0,0-2.07,1.67c-.26.26-.76.68-.74,1.1C366.26,38.86,395.78,37.8,400,37.8Z" transform="translate(-95.5 -18.82)"/><path class="cls-2" d="M400,37.81c-16.74,0-27.66,0-40.4-4.77a1.21,1.21,0,0,0-1.19.17c-2.59,2-10.75,10.19-10.48,15.14a.59.59,0,0,0,.51.53C360.5,50.62,380,51.63,400,51.82c20-.19,39.5-1.2,51.56-2.94a.59.59,0,0,0,.51-.53c.27-5-7.89-13.12-10.48-15.14A1.21,1.21,0,0,0,440.4,33c-12.74,4.77-23.66,4.77-40.4,4.77Z" transform="translate(-95.5 -18.82)"/><path class="cls-6" d="M290.58,159.93a229.72,229.72,0,0,0-74.34,65.59c-11.4,15.7-46.48,68.26-43.72,139.93,2.92,76,48.29,170.18,109.32,179.29,0,0,64.64-44.94,131.19-43.73,58.87,1.08,113.69,35,113.69,35,57.5-10.09,96.66-98.33,100.58-166.17,4.66-80.67-40-140.71-52.48-157.43-11-14.75-26-34.93-52.47-52.47Z" transform="translate(-95.5 -18.82)"/></g><g id="Screen"><path d="M544,455.41c-95.2,3.53-191.81.47-287-3a48.92,48.92,0,0,1-47.11-45.79c-2.17-35.24-3.43-69.6-2.68-100.65s26.91-58.67,58-61.28c91.1-7.66,184-7.76,272.53.66a60.57,60.57,0,0,1,54.89,58.36c1,33.24-.55,72.16-3.25,108A47.28,47.28,0,0,1,544,455.41Z" transform="translate(-95.5 -18.82)"/><rect class="cls-7" x="125.49" y="244.04" width="358.03" height="183.57" rx="25.22"/><g id="ms"><text class="cls-8" transform="translate(434.03 386.65) scale(0.79 1)">0</text><text class="cls-8" transform="translate(405.13 386.65) scale(0.79 1)">0</text></g><path d="M366.26,346.72h7.6v7.59h-7.6Zm0,20.88h7.6v7.59h-7.6Z" transform="translate(-95.5 -18.82)"/><g id="ss"><text class="cls-9" transform="translate(343.92 387.23) scale(0.77 1)">0</text><text class="cls-9" transform="translate(285.08 387.23) scale(0.77 1)">0</text></g><g id="mm"><text class="cls-9" transform="translate(204.91 387.23) scale(0.77 1)">0</text><text class="cls-9" transform="translate(145.91 387.23) scale(0.77 1)">0</text></g></g></svg>