<svg id="Layer_1" data-name="Layer 1" xmlns="http://www.w3.org/2000/svg" width="608.81" height="762.12" viewBox="0 0 608.81 762.12"><defs><style>.cls-1{fill:#1a201e;}.cls-2{fill:#cedfd7;}.cls-3{fill:#233634;}.cls-4{fill:#dcf5e0;}.cls-5{fill:#92e9a4;}.cls-6{font-size:50px;font-family:CourierNewPS-BoldMT, Courier New;}.cls-6,.cls-8{font-weight:700;}.cls-7{fill:none;stroke:#5cf;stroke-miterlimit:10;stroke-width:2px;}.cls-8{font-size:32.62px;fill:#5cf;font-family:Arial-BoldMT, Arial;}</style></defs><title>chrono</title><path class="cls-1" d="M400,778.14a303.91,303.91,0,0,0,69.81-8.74c121.8-32.64,206.54-205.86,227.32-349.73,7.42-51.35,14.89-107.77-8.74-174.86-5-14.09-41-111.89-139.89-166.12-36.68-20.12-77.93-29.42-83.06-30.6C438.9,42,423,39,400,39h0c-23,0-38.9,3-65.44,9.09-5.13,1.18-46.38,10.48-83.06,30.6-98.86,54.23-134.93,152-139.89,166.12C88,311.9,95.45,368.32,102.87,419.67,123.65,563.54,208.39,736.76,330.19,769.4A303.91,303.91,0,0,0,400,778.14" transform="translate(-95.59 -16.02)"/><path class="cls-2" d="M688.39,201.09s-3.31-55.35-30.6-83.06c-21.66-22-65.58-35-65.58-35C596.59,96.17,675.27,196.72,688.39,201.09Z" transform="translate(-95.59 -16.02)"/><path class="cls-3" d="M684.65,235.05a1,1,0,0,1-1.51.25,867.94,867.94,0,0,1-77.81-77.92c-24.45-28-54.86-69.89-60.34-77.49a1,1,0,0,1,.58-1.55c6.68-1.59,34.59-7.86,42.27-4,0,0,21.8,33.41,48.09,65.57a724.16,724.16,0,0,0,56.83,61.2C694.06,213,689.17,227.54,684.65,235.05Z" transform="translate(-95.59 -16.02)"/><path class="cls-2" d="M111.61,201.09s3.31-55.35,30.6-83.06c21.66-22,65.58-35,65.58-35C203.41,96.17,124.73,196.72,111.61,201.09Z" transform="translate(-95.59 -16.02)"/><path class="cls-3" d="M115.35,235.05a1,1,0,0,0,1.51.25,867.94,867.94,0,0,0,77.81-77.92c24.46-28,54.87-69.91,60.34-77.49a1,1,0,0,0-.58-1.55c-6.67-1.58-34.59-7.86-42.27-4,0,0-21.8,33.41-48.09,65.57a724.16,724.16,0,0,1-56.83,61.2C105.94,213,110.83,227.54,115.35,235.05Z" transform="translate(-95.59 -16.02)"/><path class="cls-4" d="M290.62,157a229.73,229.73,0,0,0-74.32,65.57c-11.4,15.7-46.47,68.24-43.72,139.89,2.93,76,48.28,170.13,109.29,179.24,0,0,64.63-44.93,131.15-43.72,58.86,1.08,113.66,35,113.66,35,57.49-10.09,96.63-98.3,100.55-166.12,4.66-80.65-40-140.67-52.46-157.38-11-14.75-26-34.92-52.46-52.46Z" transform="translate(-95.59 -16.02)"/><path d="M544,453c-95.19,3.54-191.79.47-287-3a49,49,0,0,1-47.11-45.91c-2.17-35.32-3.43-69.75-2.68-100.88s26.92-58.8,58-61.43c91.09-7.67,183.94-7.77,272.51.67a60.63,60.63,0,0,1,54.88,58.5c1,33.32-.54,72.32-3.25,108.26A47.33,47.33,0,0,1,544,453Z" transform="translate(-95.59 -16.02)"/><rect class="cls-5" x="125.41" y="243.98" width="358" height="184" rx="25.22"/><text id="display" class="cls-6" transform="translate(139.38 358.38)">00:00:00.00</text><ellipse class="cls-7" cx="304.91" cy="581.98" rx="57.5" ry="32"/><text class="cls-8" transform="translate(274.51 593.46)">IMH</text><path class="cls-3" d="M400,35c-16.73,0-27.65,0-40.39-4.77a1.24,1.24,0,0,0-1.19.17c-2.59,2-10.74,10.19-10.47,15.13a.58.58,0,0,0,.51.54C360.51,47.81,380,48.81,400,49c20-.2,39.49-1.2,51.54-2.94a.58.58,0,0,0,.51-.54c.27-4.94-7.88-13.11-10.47-15.13a1.24,1.24,0,0,0-1.19-.17C427.65,35,416.73,35,400,35Z" transform="translate(-95.59 -16.02)"/><path class="cls-2" d="M400,35c4.22,0,33.73,1.06,39-3.16,0-.41-.48-.84-.75-1.09a18.33,18.33,0,0,0-2.06-1.67,66.26,66.26,0,0,0-8.84-5.68h0C423,21,410.54,16,400,16S377,21,372.65,23.39h0a66.26,66.26,0,0,0-8.84,5.68,18.33,18.33,0,0,0-2.06,1.67c-.27.25-.77.68-.75,1.09C366.27,36.05,395.78,35,400,35Z" transform="translate(-95.59 -16.02)"/></svg>