<svg xmlns="http://www.w3.org/2000/svg" xmlns:xlink="http://www.w3.org/1999/xlink" viewBox="0 0 609 762.35"><defs><style>.cls-1{fill:#cedfd7;}.cls-2{fill:#233634;}.cls-3{fill:#92e9a4;}.cls-4{font-size:72.88px;}.cls-4,.cls-5{font-family:DS-Digital-Bold, DS-Digital;}.cls-4,.cls-5,.cls-8{font-weight:700;}.cls-5{font-size:151.82px;}.cls-6{fill:#1a201e;}.cls-7{fill:none;stroke:#5cf;stroke-miterlimit:10;stroke-width:2px;}.cls-8{font-size:32.63px;fill:#5cf;font-family:Arial-BoldMT, Arial;}.cls-9{fill:#dcf5e0;}</style><symbol id="Button" data-name="Button" viewBox="0 0 148.17 162.45"><path class="cls-1" d="M2.58,128S6.07,69.84,34.74,40.73C57.5,17.63,103.63,4,103.63,4,99,17.77,16.36,123.41,2.58,128Z"/><path class="cls-2" d="M8.32,162a1,1,0,0,0,1.52.24A867.91,867.91,0,0,0,87.65,84.28c24.45-28,54.87-69.91,60.34-77.49a1,1,0,0,0-.58-1.54c-6.67-1.59-34.6-7.87-42.28-4,0,0-21.79,33.42-48.09,65.58A724.16,724.16,0,0,1,.21,128C-1.09,140,3.81,154.45,8.32,162Z"/></symbol><symbol id="Screen" data-name="Screen" viewBox="0 0 385.97 218.51"><path d="M337,216.94c-95.18,3.54-191.79.47-287-3A49,49,0,0,1,2.89,168C.73,132.7-.53,98.27.22,67.14S27.13,8.33,58.27,5.71C149.36-2,242.21-2.07,330.78,6.37a60.64,60.64,0,0,1,54.88,58.51c1,33.31-.55,72.32-3.25,108.26A47.34,47.34,0,0,1,337,216.94Z"/><rect class="cls-3" x="13.99" y="23.94" width="358" height="184" rx="25.22"/><g id="ms"><text class="cls-4" transform="translate(322.51 166.89) scale(0.78 1)">0</text><text class="cls-4" transform="translate(293.61 166.89) scale(0.78 1)">0</text></g><path d="M159.25,108h7.6v7.6h-7.6Zm0,20.92h7.6v7.61h-7.6Z"/><g id="ss"><text class="cls-5" transform="translate(232.4 167.47) scale(0.77 1)">0</text><text class="cls-5" transform="translate(173.57 167.47) scale(0.77 1)">0</text></g><g id="mm"><text class="cls-5" transform="translate(93.4 167.47) scale(0.77 1)">0</text><text class="cls-5" transform="translate(34.4 167.47) scale(0.77 1)">0</text></g></symbol></defs><title>stopwatch</title><g id="frame"><path class="cls-6" d="M400,781.18a303.88,303.88,0,0,0,69.83-8.75C591.67,739.78,676.44,566.51,697.22,422.6c7.42-51.37,14.89-107.81-8.74-174.92-5-14.09-41-111.92-139.94-166.17C511.86,61.38,470.6,52.08,465.46,50.9,438.91,44.79,423,41.81,400,41.81h0c-23,0-38.91,3-65.46,9.09-5.14,1.18-46.4,10.48-83.08,30.61-98.9,54.25-135,152.08-139.94,166.17-23.63,67.11-16.16,123.55-8.74,174.92,20.78,143.91,105.55,317.18,227.39,349.83A303.88,303.88,0,0,0,400,781.18" transform="translate(-95.5 -18.82)"/><ellipse class="cls-7" cx="305" cy="582.24" rx="57.52" ry="32.01"/><text class="cls-8" transform="translate(274.59 593.64)">IMH</text><use width="148.17" height="162.45" transform="matrix(-1, 0, 0, 1, 597.59, 57.08)" xlink:href="#Button"/><use width="148.17" height="162.45" transform="translate(11.41 57.08)" xlink:href="#Button"/><path class="cls-1" d="M400,37.8c4.22,0,33.74,1.06,39-3.16,0-.42-.48-.84-.74-1.1a19.63,19.63,0,0,0-2.07-1.67,64.64,64.64,0,0,0-8.84-5.67h0C423,23.76,410.54,18.82,400,18.82s-23,4.94-27.36,7.38h0a64.64,64.64,0,0,0-8.84,5.67,19.63,19.63,0,0,0-2.07,1.67c-.26.26-.76.68-.74,1.1C366.26,38.86,395.78,37.8,400,37.8Z" transform="translate(-95.5 -18.82)"/><path class="cls-2" d="M400,37.81c-16.74,0-27.66,0-40.4-4.77a1.21,1.21,0,0,0-1.19.17c-2.59,2-10.75,10.19-10.48,15.14a.59.59,0,0,0,.51.53C360.5,50.62,380,51.63,400,51.82c20-.19,39.5-1.2,51.56-2.94a.59.59,0,0,0,.51-.53c.27-5-7.89-13.12-10.48-15.14A1.21,1.21,0,0,0,440.4,33c-12.74,4.77-23.66,4.77-40.4,4.77Z" transform="translate(-95.5 -18.82)"/><path class="cls-9" d="M290.58,159.93a229.72,229.72,0,0,0-74.34,65.59c-11.4,15.7-46.48,68.26-43.72,139.93,2.92,76,48.29,170.18,109.32,179.29,0,0,64.64-44.94,131.19-43.73,58.87,1.08,113.69,35,113.69,35,57.5-10.09,96.66-98.33,100.58-166.17,4.66-80.67-40-140.71-52.48-157.43-11-14.75-26-34.93-52.47-52.47Z" transform="translate(-95.5 -18.82)"/></g><use width="385.97" height="218.51" transform="translate(111.5 220.15)" xlink:href="#Screen"/></svg>